<svg width="41" height="41" viewBox="0 0 41 41" fill="none" xmlns="http://www.w3.org/2000/svg">
<path d="M40.8852 12.0472C40.7868 9.86429 40.4341 8.3707 39.9338 7.06585C39.4089 5.71998 38.7117 4.57106 37.5717 3.43855C36.4317 2.30604 35.2916 1.59207 33.9466 1.07506C32.6425 0.566253 31.1498 0.221577 28.9682 0.123098C26.7783 0.0246197 26.0812 0 20.5205 0C14.9516 0 14.2544 0.0246197 12.0728 0.123098C9.89117 0.221577 8.39847 0.57446 7.09441 1.07506C5.74114 1.60028 4.59291 2.29784 3.46108 3.43855C2.32926 4.57926 1.61572 5.71998 1.09901 7.06585C0.598712 8.3707 0.246041 9.86429 0.147622 12.0472C0.0492021 14.2384 0.0245972 14.9359 0.0245972 20.5C0.0245972 26.0723 0.0492021 26.7698 0.147622 28.9528C0.246041 31.1357 0.598712 32.6293 1.09901 33.9342C1.62392 35.28 2.32106 36.4289 3.46108 37.5615C4.59291 38.7022 5.74114 39.4079 7.08621 39.9249C8.39027 40.4338 9.88297 40.7784 12.0646 40.8769C14.2544 40.9754 14.9516 41 20.5123 41C26.0812 41 26.7783 40.9754 28.96 40.8769C31.1416 40.7784 32.6343 40.4255 33.9384 39.9249C35.2834 39.3997 36.4317 38.7022 37.5635 37.5615C38.6953 36.4207 39.4089 35.28 39.9256 33.9342C40.4341 32.6293 40.7785 31.1357 40.877 28.9528C40.9754 26.7616 41 26.0641 41 20.5C41 14.9359 40.9836 14.2302 40.8852 12.0472ZM37.2026 28.7886C37.1124 30.791 36.7761 31.8825 36.4973 32.5965C36.1282 33.5484 35.6771 34.2378 34.9554 34.96C34.2336 35.6821 33.5529 36.1171 32.5933 36.5028C31.8716 36.7818 30.7807 37.1183 28.7878 37.2086C26.6307 37.307 25.9828 37.3317 20.5041 37.3317C15.0254 37.3317 14.3775 37.307 12.2204 37.2086C10.2192 37.1183 9.12842 36.7818 8.41488 36.5028C7.46348 36.1335 6.77455 35.6821 6.0528 34.96C5.33106 34.2378 4.89637 33.5566 4.51089 32.5965C4.23204 31.8743 3.89577 30.7828 3.80555 28.7886C3.70713 26.6303 3.68253 25.982 3.68253 20.5C3.68253 15.018 3.70713 14.3697 3.80555 12.2114C3.89577 10.209 4.23204 9.11749 4.51089 8.40352C4.87997 7.45156 5.33106 6.76221 6.0528 6.04003C6.77455 5.31785 7.45528 4.88291 8.41488 4.4972C9.13662 4.21817 10.2274 3.88171 12.2204 3.79143C14.3775 3.69295 15.0254 3.66833 20.5041 3.66833C25.9828 3.66833 26.6307 3.69295 28.7878 3.79143C30.7889 3.88171 31.8798 4.21817 32.5933 4.4972C33.5447 4.86649 34.2336 5.31785 34.9554 6.04003C35.6771 6.76221 36.1118 7.44336 36.4973 8.40352C36.7761 9.1257 37.1124 10.2172 37.2026 12.2114C37.3011 14.3697 37.3257 15.018 37.3257 20.5C37.3257 25.982 37.2929 26.6303 37.2026 28.7886Z" fill="#CECECE"/>
<path d="M20.5042 9.96289C14.681 9.96289 9.97327 14.6817 9.97327 20.5001C9.97327 26.3268 14.6892 31.0373 20.5042 31.0373C26.3191 31.0373 31.0351 26.3104 31.0351 20.5001C31.0351 14.6735 26.3273 9.96289 20.5042 9.96289ZM20.5042 27.3362C16.7314 27.3362 13.6722 24.2751 13.6722 20.5001C13.6722 16.7251 16.7314 13.6641 20.5042 13.6641C24.2769 13.6641 27.3361 16.7251 27.3361 20.5001C27.3361 24.2751 24.2769 27.3362 20.5042 27.3362Z" fill="#CECECE"/>
<path d="M31.4451 12.0148C32.804 12.0148 33.9056 10.9125 33.9056 9.55279C33.9056 8.19308 32.804 7.09082 31.4451 7.09082C30.0862 7.09082 28.9846 8.19308 28.9846 9.55279C28.9846 10.9125 30.0862 12.0148 31.4451 12.0148Z" fill="#CECECE"/>
<path d="M0 20.5C0 26.0723 0.0246049 26.7698 0.123025 28.9528C0.221444 31.1357 0.574115 32.6293 1.07441 33.9342C1.59932 35.28 2.29646 36.4289 3.43649 37.5615C4.56831 38.694 5.71654 39.4079 7.06161 39.9249C8.36567 40.4338 9.85837 40.7784 12.04 40.8769C14.2298 40.9754 14.927 41 20.4877 41C26.0566 41 26.7537 40.9754 28.9354 40.8769C31.117 40.7784 32.6097 40.4255 33.9138 39.9249C35.2589 39.3997 36.4071 38.7022 37.5389 37.5615C38.6707 36.4289 39.3843 35.28 39.901 33.9342C40.4095 32.6293 40.754 31.1357 40.8524 28.9528C40.9508 26.7616 40.9754 26.0641 40.9754 20.5C40.9754 14.9277 40.9508 14.2302 40.8524 12.0472C40.754 9.86429 40.4013 8.3707 39.901 7.06585C39.3761 5.71998 38.6789 4.57106 37.5389 3.43855C36.4153 2.29784 35.2671 1.59207 33.922 1.07506C32.6179 0.566253 31.1252 0.221577 28.9436 0.123098C26.7537 0.0246197 26.0566 0 20.4959 0C14.927 0 14.2298 0.0246197 12.0482 0.123098C9.86657 0.221577 8.37387 0.57446 7.06981 1.07506C5.72474 1.60028 4.57652 2.29784 3.44469 3.43855C2.31286 4.57926 1.59932 5.71998 1.08262 7.06585C0.574115 8.3707 0.221444 9.86429 0.123025 12.0472C0.0246049 14.2302 0 14.9277 0 20.5ZM3.69894 20.5C3.69894 15.0262 3.72354 14.3697 3.82196 12.2114C3.91218 10.209 4.24845 9.11749 4.52731 8.40352C4.89638 7.45156 5.34747 6.76221 6.06921 6.04003C6.79096 5.31785 7.47169 4.88291 8.43129 4.4972C9.15303 4.21817 10.2438 3.88171 12.2368 3.79143C14.3939 3.69295 15.0418 3.66833 20.5205 3.66833C25.9992 3.66833 26.6471 3.69295 28.8042 3.79143C30.8054 3.88171 31.8962 4.21817 32.6097 4.4972C33.5611 4.86649 34.25 5.31785 34.9718 6.04003C35.6935 6.76221 36.1282 7.44336 36.5137 8.40352C36.7926 9.1257 37.1288 10.2172 37.219 12.2114C37.3175 14.3697 37.3421 15.018 37.3421 20.5C37.3421 25.982 37.3175 26.6303 37.219 28.7886C37.1288 30.791 36.7926 31.8825 36.5137 32.5965C36.1446 33.5484 35.6935 34.2378 34.9718 34.96C34.25 35.6821 33.5693 36.1171 32.6097 36.5028C31.888 36.7818 30.7972 37.1183 28.8042 37.2086C26.6471 37.307 25.9992 37.3317 20.5205 37.3317C15.0418 37.3317 14.3939 37.307 12.2368 37.2086C10.2356 37.1183 9.14483 36.7818 8.43129 36.5028C7.4799 36.1335 6.79096 35.6821 6.06921 34.96C5.34747 34.2378 4.91278 33.5566 4.52731 32.5965C4.24845 31.8743 3.91218 30.7828 3.82196 28.7886C3.71534 26.6303 3.69894 25.9738 3.69894 20.5Z" fill="#CECECE"/>
</svg>
