<svg width="41" height="41" viewBox="0 0 41 41" fill="none" xmlns="http://www.w3.org/2000/svg">
<path d="M40.1555 10.6421C39.6827 8.88596 38.298 7.50129 36.5419 7.02848C33.3335 6.15039 20.4999 6.15039 20.4999 6.15039C20.4999 6.15039 7.66636 6.15039 4.45797 6.9947C2.73557 7.46752 1.31713 8.88596 0.844313 10.6421C0 13.8505 0 20.5037 0 20.5037C0 20.5037 0 27.1907 0.844313 30.3653C1.31713 32.1214 2.7018 33.5061 4.45797 33.9789C7.70013 34.857 20.4999 34.857 20.4999 34.857C20.4999 34.857 33.3335 34.857 36.5419 34.0127C38.298 33.5399 39.6827 32.1552 40.1555 30.399C40.9998 27.1907 40.9998 20.5375 40.9998 20.5375C40.9998 20.5375 41.0336 13.8505 40.1555 10.6421Z" fill="#CECECE"/>
<path d="M16.4135 26.6506L27.0856 20.504L16.4135 14.3574V26.6506Z" fill="black"/>
</svg>
