<svg width="41" height="41" viewBox="0 0 41 41" fill="none" xmlns="http://www.w3.org/2000/svg">
<path d="M34.5793 8.85902C31.9898 7.67085 29.2129 6.79547 26.3096 6.2941C26.2567 6.28442 26.2039 6.3086 26.1767 6.35697C25.8195 6.99214 25.424 7.82078 25.147 8.47208C22.0242 8.00458 18.9175 8.00458 15.8588 8.47208C15.5817 7.8063 15.1718 6.99214 14.8131 6.35697C14.7858 6.31021 14.733 6.28603 14.6801 6.2941C11.7784 6.79386 9.00154 7.66925 6.41046 8.85902C6.38803 8.86869 6.3688 8.88483 6.35604 8.90577C1.08898 16.7746 -0.353893 24.4501 0.35393 32.0304C0.357133 32.0675 0.377951 32.103 0.406777 32.1255C3.88183 34.6775 7.24802 36.2268 10.5517 37.2537C10.6046 37.2699 10.6606 37.2505 10.6942 37.207C11.4757 36.1398 12.1724 35.0145 12.7696 33.8312C12.8049 33.7619 12.7712 33.6796 12.6992 33.6522C11.5942 33.2331 10.5421 32.722 9.52999 32.1417C9.44994 32.0949 9.44353 31.9804 9.51718 31.9256C9.73016 31.766 9.9432 31.5999 10.1466 31.4323C10.1834 31.4017 10.2346 31.3952 10.2779 31.4145C16.9269 34.4502 24.1253 34.4502 30.6958 31.4145C30.7391 31.3936 30.7903 31.4001 30.8287 31.4307C31.0322 31.5983 31.2451 31.766 31.4597 31.9256C31.5334 31.9804 31.5286 32.0949 31.4485 32.1417C30.4364 32.7333 29.3843 33.2331 28.2777 33.6506C28.2057 33.678 28.1736 33.7619 28.2089 33.8312C28.819 35.0129 29.5156 36.1381 30.2827 37.2054C30.3147 37.2505 30.3723 37.2699 30.4252 37.2537C33.7449 36.2268 37.1111 34.6775 40.5861 32.1255C40.6166 32.103 40.6358 32.0691 40.639 32.032C41.4861 23.2684 39.2201 15.6558 34.6321 8.90737C34.6209 8.88483 34.6017 8.86869 34.5793 8.85902ZM13.7626 27.4148C11.7608 27.4148 10.1113 25.577 10.1113 23.32C10.1113 21.063 11.7288 19.2251 13.7626 19.2251C15.8123 19.2251 17.4458 21.0791 17.4138 23.32C17.4138 25.577 15.7963 27.4148 13.7626 27.4148ZM27.2624 27.4148C25.2607 27.4148 23.6112 25.577 23.6112 23.32C23.6112 21.063 25.2286 19.2251 27.2624 19.2251C29.3122 19.2251 30.9456 21.0791 30.9137 23.32C30.9137 25.577 29.3122 27.4148 27.2624 27.4148Z" fill="#CECECE"/>
</svg>
