<svg width="41" height="41" viewBox="0 0 41 41" fill="none" xmlns="http://www.w3.org/2000/svg">
<path d="M35.9724 12.2667C35.9882 12.6275 35.9882 12.9719 35.9882 13.3327C36.0041 24.2716 27.9673 36.8996 13.27 36.8996C8.93523 36.8996 4.67952 35.604 1.02499 33.1768C1.65781 33.2588 2.29063 33.2916 2.92345 33.2916C6.5147 33.2916 10.011 32.0452 12.8429 29.7328C9.42566 29.6672 6.41977 27.3548 5.37562 23.9764C6.57798 24.2224 7.81198 24.1732 8.98269 23.8288C5.26488 23.0744 2.59122 19.6796 2.5754 15.7271C2.5754 15.6943 2.5754 15.6615 2.5754 15.6287C3.68283 16.2683 4.93265 16.6291 6.19829 16.6619C2.70196 14.2347 1.61035 9.39672 3.73029 5.60831C7.79616 10.7907 13.7763 13.9231 20.1994 14.2675C19.5508 11.3975 20.4367 8.37992 22.5092 6.34631C25.7207 3.2139 30.7833 3.3779 33.8208 6.70711C35.6085 6.34631 37.333 5.65751 38.8992 4.68991C38.298 6.60871 37.0482 8.23232 35.3871 9.26552C36.9691 9.06872 38.5195 8.62592 39.975 7.96992C38.8992 9.64272 37.5386 11.0859 35.9724 12.2667Z" fill="#CECECE"/>
</svg>
